<?xml version="1.0" standalone="no"?>
<!DOCTYPE svg PUBLIC "-//W3C//DTD SVG 20010904//EN"
 "http://www.w3.org/TR/2001/REC-SVG-20010904/DTD/svg10.dtd">
<svg version="1.0" xmlns="http://www.w3.org/2000/svg"
 width="243.000000pt" height="243.000000pt" viewBox="0 0 243.000000 243.000000"
 preserveAspectRatio="xMidYMid meet">
<metadata>
Created by potrace 1.11, written by Peter Selinger 2001-2013
</metadata>
<g transform="translate(0.000000,243.000000) scale(0.100000,-0.100000)"
fill="#000000" stroke="none">
<path d="M150 1215 l0 -1215 1060 0 1060 0 0 1215 0 1215 -1060 0 -1060 0 0
-1215z m920 665 c0 -176 3 -222 14 -226 7 -3 37 4 67 15 58 23 188 29 231 12
13 -5 47 -17 76 -26 101 -30 201 -118 259 -227 70 -133 67 -372 -6 -519 -59
-119 -135 -189 -253 -235 -66 -26 -85 -29 -193 -29 -110 0 -125 2 -178 27 -32
16 -62 28 -67 28 -5 0 -18 -14 -30 -30 -21 -30 -24 -31 -93 -28 l-72 3 0 699
0 699 45 14 c55 17 159 41 183 42 16 1 17 -16 17 -219z"/>
<path d="M1120 1448 l-45 -23 0 -259 0 -259 28 -21 c41 -30 201 -30 268 1 92
41 132 126 133 283 0 93 -2 111 -26 161 -15 33 -40 67 -61 83 -77 59 -216 74
-297 34z"/>
</g>
</svg>
